# xmcd
#
# Track frame offsets:
#	150
#	17424
#	33160
#	47989
#	63678
#	78112
#	95164
#	113618
#	128781
#	145179
#	160512
#	178995
#
# Disc length: 2634 seconds
#
# Revision: 0
# Processed by: cddbd v1.5.2PL0 Copyright (c) Steve Scherf et al.
# Submitted via: EasyCDDAExtractor 2010.6.0.0
#
DISCID=980a480c
DTITLE=Kjell Broen - Cadillac
DYEAR=2010
DGENRE=Bass
TTITLE0=Toner og ord
TTITLE1=Wish
TTITLE2=Se mot en himmel
TTITLE3=Never end
TTITLE4=Cadillac
TTITLE5=Bli hos meg
TTITLE6=Loving you
TTITLE7=Anna Mirabella
TTITLE8=Samme vei
TTITLE9=Love you too
TTITLE10=Ungdomstid
TTITLE11=Jacko Jacko
EXTD=
EXTT0=
EXTT1=
EXTT2=
EXTT3=
EXTT4=
EXTT5=
EXTT6=
EXTT7=
EXTT8=
EXTT9=
EXTT10=
EXTT11=
PLAYORDER=
